<mxfile host="app.diagrams.net" modified="2020-09-07T10:29:59.444Z" agent="5.0 (Windows)" etag="r7y1F-B9nyWJea6Ssc17" version="13.6.6" type="github">
  <diagram id="Ggrinw4O46cQOI9oRwe4" name="Page-1">
    <mxGraphModel dx="887" dy="423" grid="1" gridSize="10" guides="1" tooltips="1" connect="1" arrows="1" fold="1" page="1" pageScale="1" pageWidth="850" pageHeight="1100" math="0" shadow="0">
      <root>
        <mxCell id="0" />
        <mxCell id="1" parent="0" />
        <mxCell id="ERnlBITZ9IQvzJdjA-x8-9" value="" style="edgeStyle=orthogonalEdgeStyle;rounded=0;orthogonalLoop=1;jettySize=auto;html=1;strokeColor=#736CA8;fontColor=#1A1A1A;" edge="1" parent="1" source="ERnlBITZ9IQvzJdjA-x8-1">
          <mxGeometry relative="1" as="geometry">
            <mxPoint x="640" y="520" as="targetPoint" />
          </mxGeometry>
        </mxCell>
        <mxCell id="ERnlBITZ9IQvzJdjA-x8-1" value="Master" style="shape=image;html=1;verticalAlign=top;verticalLabelPosition=bottom;imageAspect=0;aspect=fixed;image=https://cdn4.iconfinder.com/data/icons/ionicons/512/icon-social-github-128.png;rounded=1;fillColor=#5D7F99;strokeColor=#D0CEE2;fontColor=#1A1A1A;" vertex="1" parent="1">
          <mxGeometry x="610" y="60" width="60" height="60" as="geometry" />
        </mxCell>
        <mxCell id="ERnlBITZ9IQvzJdjA-x8-11" value="" style="edgeStyle=orthogonalEdgeStyle;rounded=0;orthogonalLoop=1;jettySize=auto;html=1;strokeColor=#736CA8;fontColor=#1A1A1A;" edge="1" parent="1" source="ERnlBITZ9IQvzJdjA-x8-2" target="ERnlBITZ9IQvzJdjA-x8-10">
          <mxGeometry relative="1" as="geometry" />
        </mxCell>
        <mxCell id="ERnlBITZ9IQvzJdjA-x8-2" value="ns-h-digitalapp" style="shape=image;html=1;verticalAlign=top;verticalLabelPosition=bottom;imageAspect=0;aspect=fixed;image=https://cdn4.iconfinder.com/data/icons/ionicons/512/icon-social-github-128.png;rounded=1;fillColor=#5D7F99;strokeColor=#D0CEE2;fontColor=#1A1A1A;" vertex="1" parent="1">
          <mxGeometry x="490" y="60" width="60" height="60" as="geometry" />
        </mxCell>
        <mxCell id="ERnlBITZ9IQvzJdjA-x8-20" style="edgeStyle=orthogonalEdgeStyle;curved=0;rounded=1;sketch=0;orthogonalLoop=1;jettySize=auto;html=1;exitX=0.5;exitY=1;exitDx=0;exitDy=0;strokeColor=#736CA8;fontColor=#1A1A1A;" edge="1" parent="1" source="ERnlBITZ9IQvzJdjA-x8-3">
          <mxGeometry relative="1" as="geometry">
            <mxPoint x="400" y="290" as="targetPoint" />
          </mxGeometry>
        </mxCell>
        <mxCell id="ERnlBITZ9IQvzJdjA-x8-31" style="edgeStyle=none;rounded=1;sketch=0;orthogonalLoop=1;jettySize=auto;html=1;entryX=0.5;entryY=0;entryDx=0;entryDy=0;endArrow=classic;endFill=1;strokeColor=#736CA8;strokeWidth=1;fontColor=#1A1A1A;" edge="1" parent="1" source="ERnlBITZ9IQvzJdjA-x8-3" target="ERnlBITZ9IQvzJdjA-x8-30">
          <mxGeometry relative="1" as="geometry" />
        </mxCell>
        <mxCell id="ERnlBITZ9IQvzJdjA-x8-3" value="release-itb" style="shape=image;html=1;verticalAlign=top;verticalLabelPosition=bottom;imageAspect=0;aspect=fixed;image=https://cdn4.iconfinder.com/data/icons/ionicons/512/icon-social-github-128.png;rounded=1;fillColor=#5D7F99;strokeColor=#D0CEE2;fontColor=#1A1A1A;" vertex="1" parent="1">
          <mxGeometry x="370" y="60" width="60" height="60" as="geometry" />
        </mxCell>
        <mxCell id="ERnlBITZ9IQvzJdjA-x8-15" style="edgeStyle=orthogonalEdgeStyle;curved=0;rounded=1;sketch=0;orthogonalLoop=1;jettySize=auto;html=1;entryX=0.5;entryY=0;entryDx=0;entryDy=0;strokeColor=#736CA8;fontColor=#1A1A1A;" edge="1" parent="1" source="ERnlBITZ9IQvzJdjA-x8-4" target="ERnlBITZ9IQvzJdjA-x8-13">
          <mxGeometry relative="1" as="geometry" />
        </mxCell>
        <mxCell id="ERnlBITZ9IQvzJdjA-x8-4" value="release-init-ita" style="shape=image;html=1;verticalAlign=top;verticalLabelPosition=bottom;imageAspect=0;aspect=fixed;image=https://cdn4.iconfinder.com/data/icons/ionicons/512/icon-social-github-128.png;rounded=1;fillColor=#5D7F99;strokeColor=#D0CEE2;fontColor=#1A1A1A;" vertex="1" parent="1">
          <mxGeometry x="250" y="60" width="60" height="60" as="geometry" />
        </mxCell>
        <mxCell id="ERnlBITZ9IQvzJdjA-x8-5" value="feature branch" style="shape=image;html=1;verticalAlign=top;verticalLabelPosition=bottom;imageAspect=0;aspect=fixed;image=https://cdn4.iconfinder.com/data/icons/ionicons/512/icon-social-github-128.png;rounded=1;fillColor=#5D7F99;strokeColor=#D0CEE2;fontColor=#1A1A1A;" vertex="1" parent="1">
          <mxGeometry x="130" y="60" width="60" height="60" as="geometry" />
        </mxCell>
        <mxCell id="ERnlBITZ9IQvzJdjA-x8-27" value="" style="edgeStyle=orthogonalEdgeStyle;curved=0;rounded=1;sketch=0;orthogonalLoop=1;jettySize=auto;html=1;strokeColor=#736CA8;fontColor=#1A1A1A;" edge="1" parent="1" source="ERnlBITZ9IQvzJdjA-x8-10" target="ERnlBITZ9IQvzJdjA-x8-26">
          <mxGeometry relative="1" as="geometry" />
        </mxCell>
        <mxCell id="ERnlBITZ9IQvzJdjA-x8-10" value="&lt;b style=&quot;font-size: 10px;&quot;&gt;1.0.0&lt;/b&gt;" style="ellipse;whiteSpace=wrap;html=1;rounded=1;verticalAlign=bottom;fillColor=#e3c800;strokeColor=#B09500;align=center;fontSize=10;fontColor=#ffffff;" vertex="1" parent="1">
          <mxGeometry x="505" y="180" width="30" height="20" as="geometry" />
        </mxCell>
        <mxCell id="ERnlBITZ9IQvzJdjA-x8-29" style="edgeStyle=orthogonalEdgeStyle;curved=0;rounded=1;sketch=0;orthogonalLoop=1;jettySize=auto;html=1;exitX=0.5;exitY=1;exitDx=0;exitDy=0;entryX=0.5;entryY=0;entryDx=0;entryDy=0;strokeColor=#736CA8;fontColor=#1A1A1A;" edge="1" parent="1" source="ERnlBITZ9IQvzJdjA-x8-13" target="ERnlBITZ9IQvzJdjA-x8-17">
          <mxGeometry relative="1" as="geometry" />
        </mxCell>
        <mxCell id="ERnlBITZ9IQvzJdjA-x8-13" value="" style="ellipse;whiteSpace=wrap;html=1;rounded=1;verticalAlign=bottom;fillColor=#a0522d;strokeColor=#6D1F00;align=center;fontSize=10;fontColor=#ffffff;" vertex="1" parent="1">
          <mxGeometry x="265" y="190" width="30" height="20" as="geometry" />
        </mxCell>
        <mxCell id="ERnlBITZ9IQvzJdjA-x8-24" style="rounded=1;sketch=0;orthogonalLoop=1;jettySize=auto;html=1;entryX=0;entryY=0.5;entryDx=0;entryDy=0;strokeColor=#736CA8;fontColor=#1A1A1A;endArrow=classic;endFill=1;strokeWidth=3;" edge="1" parent="1" source="ERnlBITZ9IQvzJdjA-x8-17" target="ERnlBITZ9IQvzJdjA-x8-21">
          <mxGeometry relative="1" as="geometry" />
        </mxCell>
        <mxCell id="ERnlBITZ9IQvzJdjA-x8-45" value="" style="edgeStyle=none;rounded=1;sketch=0;orthogonalLoop=1;jettySize=auto;html=1;strokeColor=#736CA8;strokeWidth=1;fontColor=#1A1A1A;" edge="1" parent="1" source="ERnlBITZ9IQvzJdjA-x8-17" target="ERnlBITZ9IQvzJdjA-x8-44">
          <mxGeometry relative="1" as="geometry" />
        </mxCell>
        <mxCell id="ERnlBITZ9IQvzJdjA-x8-17" value="" style="ellipse;whiteSpace=wrap;html=1;rounded=1;verticalAlign=bottom;fillColor=#a0522d;strokeColor=#6D1F00;align=center;fontSize=10;fontColor=#ffffff;" vertex="1" parent="1">
          <mxGeometry x="265" y="230" width="30" height="20" as="geometry" />
        </mxCell>
        <mxCell id="ERnlBITZ9IQvzJdjA-x8-43" style="rounded=1;sketch=0;orthogonalLoop=1;jettySize=auto;html=1;entryX=1;entryY=0.5;entryDx=0;entryDy=0;strokeColor=#736CA8;fontColor=#1A1A1A;strokeWidth=3;" edge="1" parent="1" source="ERnlBITZ9IQvzJdjA-x8-21" target="ERnlBITZ9IQvzJdjA-x8-38">
          <mxGeometry relative="1" as="geometry" />
        </mxCell>
        <mxCell id="ERnlBITZ9IQvzJdjA-x8-47" value="" style="edgeStyle=none;rounded=1;sketch=0;orthogonalLoop=1;jettySize=auto;html=1;strokeColor=#736CA8;strokeWidth=1;fontColor=#1A1A1A;" edge="1" parent="1" source="ERnlBITZ9IQvzJdjA-x8-21" target="ERnlBITZ9IQvzJdjA-x8-46">
          <mxGeometry relative="1" as="geometry" />
        </mxCell>
        <mxCell id="ERnlBITZ9IQvzJdjA-x8-21" value="" style="ellipse;whiteSpace=wrap;html=1;rounded=1;verticalAlign=bottom;fillColor=#fa6800;strokeColor=#C73500;align=center;fontSize=10;fontColor=#ffffff;" vertex="1" parent="1">
          <mxGeometry x="385" y="270" width="30" height="20" as="geometry" />
        </mxCell>
        <mxCell id="ERnlBITZ9IQvzJdjA-x8-60" value="" style="edgeStyle=none;rounded=1;sketch=0;orthogonalLoop=1;jettySize=auto;html=1;strokeColor=#736CA8;strokeWidth=1;fontColor=#1A1A1A;" edge="1" parent="1" source="ERnlBITZ9IQvzJdjA-x8-26" target="ERnlBITZ9IQvzJdjA-x8-59">
          <mxGeometry relative="1" as="geometry" />
        </mxCell>
        <mxCell id="ERnlBITZ9IQvzJdjA-x8-26" value="&lt;b style=&quot;font-size: 10px&quot;&gt;1.0.1&lt;/b&gt;" style="ellipse;whiteSpace=wrap;html=1;rounded=1;verticalAlign=bottom;fillColor=#e3c800;strokeColor=#B09500;align=center;fontSize=10;fontColor=#ffffff;" vertex="1" parent="1">
          <mxGeometry x="505" y="300" width="30" height="20" as="geometry" />
        </mxCell>
        <mxCell id="ERnlBITZ9IQvzJdjA-x8-30" value="" style="ellipse;whiteSpace=wrap;html=1;rounded=1;verticalAlign=bottom;fillColor=#fa6800;strokeColor=#C73500;align=center;fontSize=10;fontColor=#ffffff;" vertex="1" parent="1">
          <mxGeometry x="385" y="170" width="30" height="20" as="geometry" />
        </mxCell>
        <mxCell id="ERnlBITZ9IQvzJdjA-x8-32" style="rounded=1;sketch=0;orthogonalLoop=1;jettySize=auto;html=1;entryX=0;entryY=0.5;entryDx=0;entryDy=0;strokeColor=#736CA8;fontColor=#1A1A1A;endArrow=classic;endFill=1;strokeWidth=3;exitX=1;exitY=0.5;exitDx=0;exitDy=0;" edge="1" parent="1" source="ERnlBITZ9IQvzJdjA-x8-21" target="ERnlBITZ9IQvzJdjA-x8-26">
          <mxGeometry relative="1" as="geometry">
            <mxPoint x="291.3888490354759" y="349.99791373455776" as="sourcePoint" />
            <mxPoint x="385" y="403.49" as="targetPoint" />
          </mxGeometry>
        </mxCell>
        <mxCell id="ERnlBITZ9IQvzJdjA-x8-33" style="rounded=1;sketch=0;orthogonalLoop=1;jettySize=auto;html=1;entryX=1;entryY=0.5;entryDx=0;entryDy=0;strokeColor=#736CA8;fontColor=#1A1A1A;endArrow=classic;endFill=1;strokeWidth=3;exitX=0;exitY=0.5;exitDx=0;exitDy=0;" edge="1" parent="1" source="ERnlBITZ9IQvzJdjA-x8-30" target="ERnlBITZ9IQvzJdjA-x8-13">
          <mxGeometry relative="1" as="geometry">
            <mxPoint x="291.3888490354759" y="189.99791373455776" as="sourcePoint" />
            <mxPoint x="385" y="243.49" as="targetPoint" />
          </mxGeometry>
        </mxCell>
        <mxCell id="ERnlBITZ9IQvzJdjA-x8-36" style="rounded=1;sketch=0;orthogonalLoop=1;jettySize=auto;html=1;entryX=0;entryY=0.5;entryDx=0;entryDy=0;strokeColor=#736CA8;fontColor=#1A1A1A;endArrow=classic;endFill=1;strokeWidth=3;exitX=1;exitY=0.5;exitDx=0;exitDy=0;" edge="1" parent="1" source="ERnlBITZ9IQvzJdjA-x8-30" target="ERnlBITZ9IQvzJdjA-x8-10">
          <mxGeometry relative="1" as="geometry">
            <mxPoint x="420" y="180" as="sourcePoint" />
            <mxPoint x="493.61" y="300" as="targetPoint" />
          </mxGeometry>
        </mxCell>
        <mxCell id="ERnlBITZ9IQvzJdjA-x8-51" style="edgeStyle=none;rounded=1;sketch=0;orthogonalLoop=1;jettySize=auto;html=1;entryX=0;entryY=0.5;entryDx=0;entryDy=0;strokeColor=#736CA8;strokeWidth=3;fontColor=#1A1A1A;exitX=1;exitY=0.5;exitDx=0;exitDy=0;" edge="1" parent="1" source="ERnlBITZ9IQvzJdjA-x8-55" target="ERnlBITZ9IQvzJdjA-x8-44">
          <mxGeometry relative="1" as="geometry" />
        </mxCell>
        <mxCell id="ERnlBITZ9IQvzJdjA-x8-56" value="" style="edgeStyle=none;rounded=1;sketch=0;orthogonalLoop=1;jettySize=auto;html=1;strokeColor=#736CA8;strokeWidth=1;fontColor=#1A1A1A;" edge="1" parent="1" source="ERnlBITZ9IQvzJdjA-x8-38" target="ERnlBITZ9IQvzJdjA-x8-55">
          <mxGeometry relative="1" as="geometry" />
        </mxCell>
        <mxCell id="ERnlBITZ9IQvzJdjA-x8-38" value="" style="ellipse;whiteSpace=wrap;html=1;rounded=1;verticalAlign=bottom;fillColor=#e51400;strokeColor=#B20000;align=center;fontSize=10;fontColor=#ffffff;" vertex="1" parent="1">
          <mxGeometry x="145" y="310" width="30" height="20" as="geometry" />
        </mxCell>
        <mxCell id="ERnlBITZ9IQvzJdjA-x8-41" style="edgeStyle=orthogonalEdgeStyle;curved=0;rounded=1;sketch=0;orthogonalLoop=1;jettySize=auto;html=1;exitX=0.5;exitY=1;exitDx=0;exitDy=0;fontColor=#1A1A1A;" edge="1" parent="1" source="ERnlBITZ9IQvzJdjA-x8-5" target="ERnlBITZ9IQvzJdjA-x8-38">
          <mxGeometry relative="1" as="geometry">
            <mxPoint x="160" y="420" as="targetPoint" />
            <mxPoint x="160" y="120" as="sourcePoint" />
          </mxGeometry>
        </mxCell>
        <mxCell id="ERnlBITZ9IQvzJdjA-x8-50" value="" style="edgeStyle=none;rounded=1;sketch=0;orthogonalLoop=1;jettySize=auto;html=1;strokeColor=#736CA8;strokeWidth=1;fontColor=#1A1A1A;" edge="1" parent="1" source="ERnlBITZ9IQvzJdjA-x8-44" target="ERnlBITZ9IQvzJdjA-x8-49">
          <mxGeometry relative="1" as="geometry" />
        </mxCell>
        <mxCell id="ERnlBITZ9IQvzJdjA-x8-44" value="" style="ellipse;whiteSpace=wrap;html=1;rounded=1;verticalAlign=bottom;fillColor=#a0522d;strokeColor=#6D1F00;align=center;fontSize=10;fontColor=#ffffff;" vertex="1" parent="1">
          <mxGeometry x="265" y="360" width="30" height="20" as="geometry" />
        </mxCell>
        <mxCell id="ERnlBITZ9IQvzJdjA-x8-62" style="edgeStyle=none;rounded=1;sketch=0;orthogonalLoop=1;jettySize=auto;html=1;strokeColor=#736CA8;strokeWidth=1;fontColor=#1A1A1A;" edge="1" parent="1" source="ERnlBITZ9IQvzJdjA-x8-46">
          <mxGeometry relative="1" as="geometry">
            <mxPoint x="400" y="520" as="targetPoint" />
          </mxGeometry>
        </mxCell>
        <mxCell id="ERnlBITZ9IQvzJdjA-x8-63" style="edgeStyle=none;rounded=1;sketch=0;orthogonalLoop=1;jettySize=auto;html=1;entryX=0;entryY=0.5;entryDx=0;entryDy=0;strokeColor=#432D57;strokeWidth=3;fontColor=#1A1A1A;fillColor=#76608a;" edge="1" parent="1" source="ERnlBITZ9IQvzJdjA-x8-46" target="ERnlBITZ9IQvzJdjA-x8-59">
          <mxGeometry relative="1" as="geometry" />
        </mxCell>
        <mxCell id="ERnlBITZ9IQvzJdjA-x8-46" value="" style="ellipse;whiteSpace=wrap;html=1;rounded=1;verticalAlign=bottom;fillColor=#fa6800;strokeColor=#C73500;align=center;fontSize=10;fontColor=#ffffff;" vertex="1" parent="1">
          <mxGeometry x="385" y="420" width="30" height="20" as="geometry" />
        </mxCell>
        <mxCell id="ERnlBITZ9IQvzJdjA-x8-52" style="edgeStyle=none;rounded=1;sketch=0;orthogonalLoop=1;jettySize=auto;html=1;exitX=0.5;exitY=1;exitDx=0;exitDy=0;strokeColor=#736CA8;strokeWidth=1;fontColor=#1A1A1A;" edge="1" parent="1" source="ERnlBITZ9IQvzJdjA-x8-49">
          <mxGeometry relative="1" as="geometry">
            <mxPoint x="280" y="520" as="targetPoint" />
          </mxGeometry>
        </mxCell>
        <mxCell id="ERnlBITZ9IQvzJdjA-x8-54" style="edgeStyle=none;rounded=1;sketch=0;orthogonalLoop=1;jettySize=auto;html=1;exitX=1;exitY=0.5;exitDx=0;exitDy=0;entryX=0;entryY=0.5;entryDx=0;entryDy=0;strokeColor=#736CA8;strokeWidth=3;fontColor=#1A1A1A;" edge="1" parent="1" source="ERnlBITZ9IQvzJdjA-x8-49" target="ERnlBITZ9IQvzJdjA-x8-46">
          <mxGeometry relative="1" as="geometry" />
        </mxCell>
        <mxCell id="ERnlBITZ9IQvzJdjA-x8-49" value="" style="ellipse;whiteSpace=wrap;html=1;rounded=1;verticalAlign=bottom;fillColor=#a0522d;strokeColor=#6D1F00;align=center;fontSize=10;fontColor=#ffffff;" vertex="1" parent="1">
          <mxGeometry x="265" y="400" width="30" height="20" as="geometry" />
        </mxCell>
        <mxCell id="ERnlBITZ9IQvzJdjA-x8-57" style="edgeStyle=none;rounded=1;sketch=0;orthogonalLoop=1;jettySize=auto;html=1;strokeColor=#736CA8;strokeWidth=1;fontColor=#1A1A1A;" edge="1" parent="1" source="ERnlBITZ9IQvzJdjA-x8-55">
          <mxGeometry relative="1" as="geometry">
            <mxPoint x="160" y="520" as="targetPoint" />
          </mxGeometry>
        </mxCell>
        <mxCell id="ERnlBITZ9IQvzJdjA-x8-55" value="" style="ellipse;whiteSpace=wrap;html=1;rounded=1;verticalAlign=bottom;fillColor=#e51400;strokeColor=#B20000;align=center;fontSize=10;fontColor=#ffffff;" vertex="1" parent="1">
          <mxGeometry x="145" y="350" width="30" height="20" as="geometry" />
        </mxCell>
        <mxCell id="ERnlBITZ9IQvzJdjA-x8-61" style="edgeStyle=none;rounded=1;sketch=0;orthogonalLoop=1;jettySize=auto;html=1;strokeColor=#736CA8;strokeWidth=1;fontColor=#1A1A1A;" edge="1" parent="1" source="ERnlBITZ9IQvzJdjA-x8-59">
          <mxGeometry relative="1" as="geometry">
            <mxPoint x="520" y="520" as="targetPoint" />
          </mxGeometry>
        </mxCell>
        <mxCell id="ERnlBITZ9IQvzJdjA-x8-59" value="&lt;b style=&quot;font-size: 10px&quot;&gt;2.0.0&lt;/b&gt;" style="ellipse;whiteSpace=wrap;html=1;rounded=1;verticalAlign=bottom;fillColor=#e3c800;strokeColor=#B09500;align=center;fontSize=10;fontColor=#ffffff;" vertex="1" parent="1">
          <mxGeometry x="505" y="440" width="30" height="20" as="geometry" />
        </mxCell>
      </root>
    </mxGraphModel>
  </diagram>
</mxfile>
